<mxfile host="app.diagrams.net" modified="2023-05-03T06:13:07.830Z" agent="Mozilla/5.0 (Windows NT 10.0; Win64; x64) AppleWebKit/537.36 (KHTML, like Gecko) Chrome/112.0.0.0 Safari/537.36 Edg/112.0.1722.58" etag="svKe1LyjZ9Jnw6i-Ncik" version="21.2.3" type="github">
  <diagram name="第 1 页" id="7A-k_5mtWCN91DQgnXIf">
    <mxGraphModel dx="1451" dy="674" grid="1" gridSize="10" guides="1" tooltips="1" connect="1" arrows="1" fold="1" page="1" pageScale="1" pageWidth="827" pageHeight="1169" math="0" shadow="0">
      <root>
        <mxCell id="0" />
        <mxCell id="1" parent="0" />
        <mxCell id="m9pvak0WOSGshnVw4_2q-1" value="" style="whiteSpace=wrap;html=1;aspect=fixed;" vertex="1" parent="1">
          <mxGeometry x="160" y="200" width="40" height="40" as="geometry" />
        </mxCell>
        <mxCell id="m9pvak0WOSGshnVw4_2q-2" value="" style="whiteSpace=wrap;html=1;aspect=fixed;" vertex="1" parent="1">
          <mxGeometry x="160" y="280" width="40" height="40" as="geometry" />
        </mxCell>
        <mxCell id="m9pvak0WOSGshnVw4_2q-3" value="" style="whiteSpace=wrap;html=1;aspect=fixed;" vertex="1" parent="1">
          <mxGeometry x="160" y="360" width="40" height="40" as="geometry" />
        </mxCell>
        <mxCell id="m9pvak0WOSGshnVw4_2q-4" value="&lt;font style=&quot;font-size: 18px;&quot;&gt;Input&lt;/font&gt;" style="text;html=1;strokeColor=none;fillColor=none;align=center;verticalAlign=middle;whiteSpace=wrap;rounded=0;" vertex="1" parent="1">
          <mxGeometry x="40" y="285" width="60" height="30" as="geometry" />
        </mxCell>
        <mxCell id="m9pvak0WOSGshnVw4_2q-6" value="" style="endArrow=none;html=1;rounded=0;entryX=0;entryY=0.5;entryDx=0;entryDy=0;" edge="1" parent="1" target="m9pvak0WOSGshnVw4_2q-1">
          <mxGeometry width="50" height="50" relative="1" as="geometry">
            <mxPoint x="100" y="285" as="sourcePoint" />
            <mxPoint x="150" y="235" as="targetPoint" />
          </mxGeometry>
        </mxCell>
        <mxCell id="m9pvak0WOSGshnVw4_2q-7" value="" style="endArrow=none;html=1;rounded=0;entryX=0;entryY=0.5;entryDx=0;entryDy=0;" edge="1" parent="1" target="m9pvak0WOSGshnVw4_2q-3">
          <mxGeometry width="50" height="50" relative="1" as="geometry">
            <mxPoint x="100" y="320" as="sourcePoint" />
            <mxPoint x="150" y="370" as="targetPoint" />
          </mxGeometry>
        </mxCell>
        <mxCell id="m9pvak0WOSGshnVw4_2q-8" value="" style="endArrow=none;html=1;rounded=0;entryX=0;entryY=0.5;entryDx=0;entryDy=0;" edge="1" parent="1" target="m9pvak0WOSGshnVw4_2q-2">
          <mxGeometry width="50" height="50" relative="1" as="geometry">
            <mxPoint x="100" y="299.76" as="sourcePoint" />
            <mxPoint x="150" y="299.76" as="targetPoint" />
          </mxGeometry>
        </mxCell>
        <mxCell id="m9pvak0WOSGshnVw4_2q-9" value="32X64" style="text;html=1;strokeColor=none;fillColor=none;align=center;verticalAlign=middle;whiteSpace=wrap;rounded=0;" vertex="1" parent="1">
          <mxGeometry x="150" y="170" width="60" height="30" as="geometry" />
        </mxCell>
        <mxCell id="m9pvak0WOSGshnVw4_2q-10" value="" style="whiteSpace=wrap;html=1;aspect=fixed;" vertex="1" parent="1">
          <mxGeometry x="260" y="120" width="40" height="40" as="geometry" />
        </mxCell>
        <mxCell id="m9pvak0WOSGshnVw4_2q-11" value="" style="whiteSpace=wrap;html=1;aspect=fixed;" vertex="1" parent="1">
          <mxGeometry x="260" y="200" width="40" height="40" as="geometry" />
        </mxCell>
        <mxCell id="m9pvak0WOSGshnVw4_2q-13" value="" style="whiteSpace=wrap;html=1;aspect=fixed;" vertex="1" parent="1">
          <mxGeometry x="260" y="360" width="40" height="40" as="geometry" />
        </mxCell>
        <mxCell id="m9pvak0WOSGshnVw4_2q-14" value="" style="whiteSpace=wrap;html=1;aspect=fixed;" vertex="1" parent="1">
          <mxGeometry x="260" y="440" width="40" height="40" as="geometry" />
        </mxCell>
        <mxCell id="m9pvak0WOSGshnVw4_2q-15" value="&lt;font style=&quot;font-size: 24px;&quot;&gt;...&lt;/font&gt;" style="text;html=1;strokeColor=none;fillColor=none;align=center;verticalAlign=middle;whiteSpace=wrap;rounded=0;" vertex="1" parent="1">
          <mxGeometry x="250" y="285" width="60" height="30" as="geometry" />
        </mxCell>
        <mxCell id="m9pvak0WOSGshnVw4_2q-16" value="32X64" style="text;html=1;strokeColor=none;fillColor=none;align=center;verticalAlign=middle;whiteSpace=wrap;rounded=0;" vertex="1" parent="1">
          <mxGeometry x="250" y="90" width="60" height="30" as="geometry" />
        </mxCell>
        <mxCell id="m9pvak0WOSGshnVw4_2q-17" value="3" style="text;html=1;strokeColor=none;fillColor=none;align=center;verticalAlign=middle;whiteSpace=wrap;rounded=0;" vertex="1" parent="1">
          <mxGeometry x="150" y="410" width="60" height="30" as="geometry" />
        </mxCell>
        <mxCell id="m9pvak0WOSGshnVw4_2q-18" value="32" style="text;html=1;strokeColor=none;fillColor=none;align=center;verticalAlign=middle;whiteSpace=wrap;rounded=0;" vertex="1" parent="1">
          <mxGeometry x="250" y="490" width="60" height="30" as="geometry" />
        </mxCell>
        <mxCell id="m9pvak0WOSGshnVw4_2q-19" value="" style="whiteSpace=wrap;html=1;aspect=fixed;" vertex="1" parent="1">
          <mxGeometry x="360" y="120" width="40" height="40" as="geometry" />
        </mxCell>
        <mxCell id="m9pvak0WOSGshnVw4_2q-20" value="" style="whiteSpace=wrap;html=1;aspect=fixed;" vertex="1" parent="1">
          <mxGeometry x="360" y="200" width="40" height="40" as="geometry" />
        </mxCell>
        <mxCell id="m9pvak0WOSGshnVw4_2q-21" value="" style="whiteSpace=wrap;html=1;aspect=fixed;" vertex="1" parent="1">
          <mxGeometry x="360" y="360" width="40" height="40" as="geometry" />
        </mxCell>
        <mxCell id="m9pvak0WOSGshnVw4_2q-22" value="" style="whiteSpace=wrap;html=1;aspect=fixed;" vertex="1" parent="1">
          <mxGeometry x="360" y="440" width="40" height="40" as="geometry" />
        </mxCell>
        <mxCell id="m9pvak0WOSGshnVw4_2q-23" value="&lt;font style=&quot;font-size: 24px;&quot;&gt;...&lt;/font&gt;" style="text;html=1;strokeColor=none;fillColor=none;align=center;verticalAlign=middle;whiteSpace=wrap;rounded=0;" vertex="1" parent="1">
          <mxGeometry x="350" y="285" width="60" height="30" as="geometry" />
        </mxCell>
        <mxCell id="m9pvak0WOSGshnVw4_2q-24" value="16X32" style="text;html=1;strokeColor=none;fillColor=none;align=center;verticalAlign=middle;whiteSpace=wrap;rounded=0;" vertex="1" parent="1">
          <mxGeometry x="350" y="90" width="60" height="30" as="geometry" />
        </mxCell>
        <mxCell id="m9pvak0WOSGshnVw4_2q-25" value="64" style="text;html=1;strokeColor=none;fillColor=none;align=center;verticalAlign=middle;whiteSpace=wrap;rounded=0;" vertex="1" parent="1">
          <mxGeometry x="350" y="490" width="60" height="30" as="geometry" />
        </mxCell>
        <mxCell id="m9pvak0WOSGshnVw4_2q-27" value="" style="endArrow=none;html=1;rounded=0;entryX=0;entryY=0.5;entryDx=0;entryDy=0;" edge="1" parent="1" target="m9pvak0WOSGshnVw4_2q-10">
          <mxGeometry width="50" height="50" relative="1" as="geometry">
            <mxPoint x="200" y="220" as="sourcePoint" />
            <mxPoint x="250" y="170" as="targetPoint" />
          </mxGeometry>
        </mxCell>
        <mxCell id="m9pvak0WOSGshnVw4_2q-28" value="" style="endArrow=none;html=1;rounded=0;entryX=0;entryY=0.5;entryDx=0;entryDy=0;" edge="1" parent="1" target="m9pvak0WOSGshnVw4_2q-10">
          <mxGeometry width="50" height="50" relative="1" as="geometry">
            <mxPoint x="200" y="297" as="sourcePoint" />
            <mxPoint x="255" y="220" as="targetPoint" />
          </mxGeometry>
        </mxCell>
        <mxCell id="m9pvak0WOSGshnVw4_2q-29" value="" style="endArrow=none;html=1;rounded=0;entryX=0;entryY=0.5;entryDx=0;entryDy=0;" edge="1" parent="1" target="m9pvak0WOSGshnVw4_2q-10">
          <mxGeometry width="50" height="50" relative="1" as="geometry">
            <mxPoint x="200" y="380" as="sourcePoint" />
            <mxPoint x="255" y="150" as="targetPoint" />
          </mxGeometry>
        </mxCell>
        <mxCell id="m9pvak0WOSGshnVw4_2q-30" value="" style="endArrow=none;html=1;rounded=0;entryX=-0.117;entryY=0.575;entryDx=0;entryDy=0;entryPerimeter=0;" edge="1" parent="1">
          <mxGeometry width="50" height="50" relative="1" as="geometry">
            <mxPoint x="200" y="220" as="sourcePoint" />
            <mxPoint x="260" y="220" as="targetPoint" />
          </mxGeometry>
        </mxCell>
        <mxCell id="m9pvak0WOSGshnVw4_2q-31" value="" style="endArrow=none;html=1;rounded=0;entryX=0;entryY=0.5;entryDx=0;entryDy=0;exitX=1;exitY=0.5;exitDx=0;exitDy=0;" edge="1" parent="1" source="m9pvak0WOSGshnVw4_2q-1" target="m9pvak0WOSGshnVw4_2q-13">
          <mxGeometry width="50" height="50" relative="1" as="geometry">
            <mxPoint x="190" y="350" as="sourcePoint" />
            <mxPoint x="250" y="350" as="targetPoint" />
          </mxGeometry>
        </mxCell>
        <mxCell id="m9pvak0WOSGshnVw4_2q-32" value="" style="endArrow=none;html=1;rounded=0;entryX=0;entryY=0.5;entryDx=0;entryDy=0;" edge="1" parent="1">
          <mxGeometry width="50" height="50" relative="1" as="geometry">
            <mxPoint x="200" y="220" as="sourcePoint" />
            <mxPoint x="260" y="460" as="targetPoint" />
          </mxGeometry>
        </mxCell>
        <mxCell id="m9pvak0WOSGshnVw4_2q-33" value="" style="endArrow=none;html=1;rounded=0;entryX=0;entryY=0.5;entryDx=0;entryDy=0;" edge="1" parent="1" target="m9pvak0WOSGshnVw4_2q-11">
          <mxGeometry width="50" height="50" relative="1" as="geometry">
            <mxPoint x="200" y="300" as="sourcePoint" />
            <mxPoint x="265" y="159" as="targetPoint" />
          </mxGeometry>
        </mxCell>
        <mxCell id="m9pvak0WOSGshnVw4_2q-34" value="" style="endArrow=none;html=1;rounded=0;entryX=0;entryY=0.5;entryDx=0;entryDy=0;exitX=1;exitY=0.5;exitDx=0;exitDy=0;" edge="1" parent="1" source="m9pvak0WOSGshnVw4_2q-2" target="m9pvak0WOSGshnVw4_2q-13">
          <mxGeometry width="50" height="50" relative="1" as="geometry">
            <mxPoint x="210" y="315" as="sourcePoint" />
            <mxPoint x="270" y="235" as="targetPoint" />
          </mxGeometry>
        </mxCell>
        <mxCell id="m9pvak0WOSGshnVw4_2q-35" value="" style="endArrow=none;html=1;rounded=0;entryX=0;entryY=0.5;entryDx=0;entryDy=0;exitX=1;exitY=0.5;exitDx=0;exitDy=0;" edge="1" parent="1" source="m9pvak0WOSGshnVw4_2q-2" target="m9pvak0WOSGshnVw4_2q-14">
          <mxGeometry width="50" height="50" relative="1" as="geometry">
            <mxPoint x="210" y="310" as="sourcePoint" />
            <mxPoint x="270" y="390" as="targetPoint" />
          </mxGeometry>
        </mxCell>
        <mxCell id="m9pvak0WOSGshnVw4_2q-36" value="" style="endArrow=none;html=1;rounded=0;entryX=0;entryY=0.5;entryDx=0;entryDy=0;" edge="1" parent="1" target="m9pvak0WOSGshnVw4_2q-11">
          <mxGeometry width="50" height="50" relative="1" as="geometry">
            <mxPoint x="200" y="380" as="sourcePoint" />
            <mxPoint x="265" y="160" as="targetPoint" />
          </mxGeometry>
        </mxCell>
        <mxCell id="m9pvak0WOSGshnVw4_2q-37" value="" style="endArrow=none;html=1;rounded=0;entryX=0;entryY=0.5;entryDx=0;entryDy=0;" edge="1" parent="1" target="m9pvak0WOSGshnVw4_2q-13">
          <mxGeometry width="50" height="50" relative="1" as="geometry">
            <mxPoint x="200" y="380" as="sourcePoint" />
            <mxPoint x="270" y="230" as="targetPoint" />
          </mxGeometry>
        </mxCell>
        <mxCell id="m9pvak0WOSGshnVw4_2q-38" value="" style="endArrow=none;html=1;rounded=0;entryX=0;entryY=0.5;entryDx=0;entryDy=0;exitX=1;exitY=0.5;exitDx=0;exitDy=0;" edge="1" parent="1" source="m9pvak0WOSGshnVw4_2q-3" target="m9pvak0WOSGshnVw4_2q-14">
          <mxGeometry width="50" height="50" relative="1" as="geometry">
            <mxPoint x="210" y="400" as="sourcePoint" />
            <mxPoint x="270" y="390" as="targetPoint" />
          </mxGeometry>
        </mxCell>
        <mxCell id="m9pvak0WOSGshnVw4_2q-39" value="" style="endArrow=none;html=1;rounded=0;entryX=-0.117;entryY=0.575;entryDx=0;entryDy=0;entryPerimeter=0;" edge="1" parent="1">
          <mxGeometry width="50" height="50" relative="1" as="geometry">
            <mxPoint x="300" y="219.66" as="sourcePoint" />
            <mxPoint x="360" y="219.66" as="targetPoint" />
          </mxGeometry>
        </mxCell>
        <mxCell id="m9pvak0WOSGshnVw4_2q-40" value="" style="endArrow=none;html=1;rounded=0;entryX=-0.117;entryY=0.575;entryDx=0;entryDy=0;entryPerimeter=0;" edge="1" parent="1">
          <mxGeometry width="50" height="50" relative="1" as="geometry">
            <mxPoint x="300" y="379.65999999999997" as="sourcePoint" />
            <mxPoint x="360" y="379.65999999999997" as="targetPoint" />
          </mxGeometry>
        </mxCell>
        <mxCell id="m9pvak0WOSGshnVw4_2q-41" value="" style="endArrow=none;html=1;rounded=0;entryX=-0.117;entryY=0.575;entryDx=0;entryDy=0;entryPerimeter=0;" edge="1" parent="1">
          <mxGeometry width="50" height="50" relative="1" as="geometry">
            <mxPoint x="300" y="459.65999999999997" as="sourcePoint" />
            <mxPoint x="360" y="459.65999999999997" as="targetPoint" />
          </mxGeometry>
        </mxCell>
        <mxCell id="m9pvak0WOSGshnVw4_2q-42" value="" style="endArrow=none;html=1;rounded=0;entryX=-0.117;entryY=0.575;entryDx=0;entryDy=0;entryPerimeter=0;" edge="1" parent="1">
          <mxGeometry width="50" height="50" relative="1" as="geometry">
            <mxPoint x="300" y="139.65999999999997" as="sourcePoint" />
            <mxPoint x="360" y="139.65999999999997" as="targetPoint" />
          </mxGeometry>
        </mxCell>
        <mxCell id="m9pvak0WOSGshnVw4_2q-64" value="&lt;font style=&quot;font-size: 48px;&quot;&gt;...&lt;/font&gt;" style="text;html=1;strokeColor=none;fillColor=none;align=center;verticalAlign=middle;whiteSpace=wrap;rounded=0;" vertex="1" parent="1">
          <mxGeometry x="420" y="270" width="60" height="30" as="geometry" />
        </mxCell>
        <mxCell id="m9pvak0WOSGshnVw4_2q-69" value="&lt;font style=&quot;font-size: 24px;&quot;&gt;...&lt;/font&gt;" style="text;html=1;strokeColor=none;fillColor=none;align=center;verticalAlign=middle;whiteSpace=wrap;rounded=0;" vertex="1" parent="1">
          <mxGeometry x="490" y="285" width="60" height="30" as="geometry" />
        </mxCell>
        <mxCell id="m9pvak0WOSGshnVw4_2q-70" value="4X8" style="text;html=1;strokeColor=none;fillColor=none;align=center;verticalAlign=middle;whiteSpace=wrap;rounded=0;" vertex="1" parent="1">
          <mxGeometry x="490" y="90" width="60" height="30" as="geometry" />
        </mxCell>
        <mxCell id="m9pvak0WOSGshnVw4_2q-71" value="256" style="text;html=1;strokeColor=none;fillColor=none;align=center;verticalAlign=middle;whiteSpace=wrap;rounded=0;" vertex="1" parent="1">
          <mxGeometry x="490" y="490" width="60" height="30" as="geometry" />
        </mxCell>
        <mxCell id="m9pvak0WOSGshnVw4_2q-76" value="&lt;font style=&quot;font-size: 24px;&quot;&gt;...&lt;/font&gt;" style="text;html=1;strokeColor=none;fillColor=none;align=center;verticalAlign=middle;whiteSpace=wrap;rounded=0;" vertex="1" parent="1">
          <mxGeometry x="570" y="285" width="60" height="30" as="geometry" />
        </mxCell>
        <mxCell id="m9pvak0WOSGshnVw4_2q-88" value="" style="endArrow=none;html=1;rounded=0;exitX=1;exitY=0.5;exitDx=0;exitDy=0;" edge="1" parent="1" source="m9pvak0WOSGshnVw4_2q-66">
          <mxGeometry width="50" height="50" relative="1" as="geometry">
            <mxPoint x="520" y="220" as="sourcePoint" />
            <mxPoint x="590" y="140" as="targetPoint" />
          </mxGeometry>
        </mxCell>
        <mxCell id="m9pvak0WOSGshnVw4_2q-89" value="" style="endArrow=none;html=1;rounded=0;entryX=0;entryY=0.5;entryDx=0;entryDy=0;" edge="1" parent="1" target="m9pvak0WOSGshnVw4_2q-72">
          <mxGeometry width="50" height="50" relative="1" as="geometry">
            <mxPoint x="540" y="140" as="sourcePoint" />
            <mxPoint x="580" y="140" as="targetPoint" />
          </mxGeometry>
        </mxCell>
        <mxCell id="m9pvak0WOSGshnVw4_2q-90" value="" style="endArrow=none;html=1;rounded=0;" edge="1" parent="1">
          <mxGeometry width="50" height="50" relative="1" as="geometry">
            <mxPoint x="540" y="380" as="sourcePoint" />
            <mxPoint x="590" y="140" as="targetPoint" />
          </mxGeometry>
        </mxCell>
        <mxCell id="m9pvak0WOSGshnVw4_2q-91" value="" style="endArrow=none;html=1;rounded=0;" edge="1" parent="1">
          <mxGeometry width="50" height="50" relative="1" as="geometry">
            <mxPoint x="540" y="220" as="sourcePoint" />
            <mxPoint x="590" y="220" as="targetPoint" />
          </mxGeometry>
        </mxCell>
        <mxCell id="m9pvak0WOSGshnVw4_2q-92" value="" style="endArrow=none;html=1;rounded=0;exitX=1;exitY=0.5;exitDx=0;exitDy=0;" edge="1" parent="1" source="m9pvak0WOSGshnVw4_2q-66">
          <mxGeometry width="50" height="50" relative="1" as="geometry">
            <mxPoint x="520" y="220" as="sourcePoint" />
            <mxPoint x="590" y="380" as="targetPoint" />
          </mxGeometry>
        </mxCell>
        <mxCell id="m9pvak0WOSGshnVw4_2q-93" value="" style="endArrow=none;html=1;rounded=0;exitX=1;exitY=0.5;exitDx=0;exitDy=0;" edge="1" parent="1" source="m9pvak0WOSGshnVw4_2q-66">
          <mxGeometry width="50" height="50" relative="1" as="geometry">
            <mxPoint x="520" y="220" as="sourcePoint" />
            <mxPoint x="590" y="460" as="targetPoint" />
          </mxGeometry>
        </mxCell>
        <mxCell id="m9pvak0WOSGshnVw4_2q-95" value="" style="endArrow=none;html=1;rounded=0;" edge="1" parent="1">
          <mxGeometry width="50" height="50" relative="1" as="geometry">
            <mxPoint x="540" y="140" as="sourcePoint" />
            <mxPoint x="590" y="380" as="targetPoint" />
          </mxGeometry>
        </mxCell>
        <mxCell id="m9pvak0WOSGshnVw4_2q-96" value="" style="endArrow=none;html=1;rounded=0;" edge="1" parent="1">
          <mxGeometry width="50" height="50" relative="1" as="geometry">
            <mxPoint x="540" y="140" as="sourcePoint" />
            <mxPoint x="590" y="460" as="targetPoint" />
          </mxGeometry>
        </mxCell>
        <mxCell id="m9pvak0WOSGshnVw4_2q-98" value="" style="endArrow=none;html=1;rounded=0;" edge="1" parent="1">
          <mxGeometry width="50" height="50" relative="1" as="geometry">
            <mxPoint x="540" y="380" as="sourcePoint" />
            <mxPoint x="590" y="380" as="targetPoint" />
          </mxGeometry>
        </mxCell>
        <mxCell id="m9pvak0WOSGshnVw4_2q-99" value="" style="endArrow=none;html=1;rounded=0;" edge="1" parent="1">
          <mxGeometry width="50" height="50" relative="1" as="geometry">
            <mxPoint x="540" y="380" as="sourcePoint" />
            <mxPoint x="590" y="460" as="targetPoint" />
          </mxGeometry>
        </mxCell>
        <mxCell id="m9pvak0WOSGshnVw4_2q-100" value="" style="endArrow=none;html=1;rounded=0;exitX=1;exitY=0.5;exitDx=0;exitDy=0;" edge="1" parent="1" source="m9pvak0WOSGshnVw4_2q-68">
          <mxGeometry width="50" height="50" relative="1" as="geometry">
            <mxPoint x="550" y="390" as="sourcePoint" />
            <mxPoint x="590" y="140" as="targetPoint" />
          </mxGeometry>
        </mxCell>
        <mxCell id="m9pvak0WOSGshnVw4_2q-102" value="" style="endArrow=none;html=1;rounded=0;entryX=0;entryY=0.5;entryDx=0;entryDy=0;" edge="1" parent="1" target="m9pvak0WOSGshnVw4_2q-75">
          <mxGeometry width="50" height="50" relative="1" as="geometry">
            <mxPoint x="540" y="459.71" as="sourcePoint" />
            <mxPoint x="580" y="459.71" as="targetPoint" />
          </mxGeometry>
        </mxCell>
        <mxCell id="m9pvak0WOSGshnVw4_2q-103" value="" style="endArrow=none;html=1;rounded=0;entryX=0;entryY=0.5;entryDx=0;entryDy=0;" edge="1" parent="1" target="m9pvak0WOSGshnVw4_2q-73">
          <mxGeometry width="50" height="50" relative="1" as="geometry">
            <mxPoint x="540" y="460" as="sourcePoint" />
            <mxPoint x="590" y="230" as="targetPoint" />
          </mxGeometry>
        </mxCell>
        <mxCell id="m9pvak0WOSGshnVw4_2q-104" value="" style="endArrow=none;html=1;rounded=0;entryX=0;entryY=0.5;entryDx=0;entryDy=0;exitX=1;exitY=0.5;exitDx=0;exitDy=0;" edge="1" parent="1" source="m9pvak0WOSGshnVw4_2q-73">
          <mxGeometry width="50" height="50" relative="1" as="geometry">
            <mxPoint x="620" y="219.73" as="sourcePoint" />
            <mxPoint x="660" y="139.73" as="targetPoint" />
          </mxGeometry>
        </mxCell>
        <mxCell id="m9pvak0WOSGshnVw4_2q-105" value="" style="endArrow=none;html=1;rounded=0;entryX=0;entryY=0.5;entryDx=0;entryDy=0;exitX=1;exitY=0.5;exitDx=0;exitDy=0;" edge="1" parent="1" source="m9pvak0WOSGshnVw4_2q-72">
          <mxGeometry width="50" height="50" relative="1" as="geometry">
            <mxPoint x="620" y="139.73" as="sourcePoint" />
            <mxPoint x="660" y="139.73" as="targetPoint" />
          </mxGeometry>
        </mxCell>
        <mxCell id="m9pvak0WOSGshnVw4_2q-106" value="" style="endArrow=none;html=1;rounded=0;entryX=0;entryY=0.5;entryDx=0;entryDy=0;" edge="1" parent="1">
          <mxGeometry width="50" height="50" relative="1" as="geometry">
            <mxPoint x="610" y="380" as="sourcePoint" />
            <mxPoint x="660" y="139.73" as="targetPoint" />
          </mxGeometry>
        </mxCell>
        <mxCell id="m9pvak0WOSGshnVw4_2q-107" value="" style="endArrow=none;html=1;rounded=0;entryX=-0.117;entryY=0.575;entryDx=0;entryDy=0;entryPerimeter=0;exitX=1;exitY=0.5;exitDx=0;exitDy=0;" edge="1" parent="1" source="m9pvak0WOSGshnVw4_2q-73">
          <mxGeometry width="50" height="50" relative="1" as="geometry">
            <mxPoint x="620" y="219.73" as="sourcePoint" />
            <mxPoint x="660" y="219.73" as="targetPoint" />
          </mxGeometry>
        </mxCell>
        <mxCell id="m9pvak0WOSGshnVw4_2q-108" value="" style="endArrow=none;html=1;rounded=0;entryX=0;entryY=0.5;entryDx=0;entryDy=0;" edge="1" parent="1">
          <mxGeometry width="50" height="50" relative="1" as="geometry">
            <mxPoint x="610" y="220" as="sourcePoint" />
            <mxPoint x="660" y="379.73" as="targetPoint" />
          </mxGeometry>
        </mxCell>
        <mxCell id="m9pvak0WOSGshnVw4_2q-109" value="" style="endArrow=none;html=1;rounded=0;entryX=0;entryY=0.5;entryDx=0;entryDy=0;exitX=1;exitY=0.5;exitDx=0;exitDy=0;" edge="1" parent="1" source="m9pvak0WOSGshnVw4_2q-73">
          <mxGeometry width="50" height="50" relative="1" as="geometry">
            <mxPoint x="620" y="219.73" as="sourcePoint" />
            <mxPoint x="660" y="459.73" as="targetPoint" />
          </mxGeometry>
        </mxCell>
        <mxCell id="m9pvak0WOSGshnVw4_2q-110" value="" style="endArrow=none;html=1;rounded=0;entryX=0;entryY=0.5;entryDx=0;entryDy=0;" edge="1" parent="1">
          <mxGeometry width="50" height="50" relative="1" as="geometry">
            <mxPoint x="610" y="140" as="sourcePoint" />
            <mxPoint x="660" y="219.73" as="targetPoint" />
          </mxGeometry>
        </mxCell>
        <mxCell id="m9pvak0WOSGshnVw4_2q-111" value="" style="endArrow=none;html=1;rounded=0;entryX=0;entryY=0.5;entryDx=0;entryDy=0;exitX=1;exitY=0.5;exitDx=0;exitDy=0;" edge="1" parent="1" source="m9pvak0WOSGshnVw4_2q-72">
          <mxGeometry width="50" height="50" relative="1" as="geometry">
            <mxPoint x="620" y="139.73" as="sourcePoint" />
            <mxPoint x="660" y="379.73" as="targetPoint" />
          </mxGeometry>
        </mxCell>
        <mxCell id="m9pvak0WOSGshnVw4_2q-112" value="" style="endArrow=none;html=1;rounded=0;entryX=0;entryY=0.5;entryDx=0;entryDy=0;" edge="1" parent="1">
          <mxGeometry width="50" height="50" relative="1" as="geometry">
            <mxPoint x="610" y="140" as="sourcePoint" />
            <mxPoint x="660" y="459.73" as="targetPoint" />
          </mxGeometry>
        </mxCell>
        <mxCell id="m9pvak0WOSGshnVw4_2q-113" value="" style="endArrow=none;html=1;rounded=0;entryX=0;entryY=0.5;entryDx=0;entryDy=0;" edge="1" parent="1">
          <mxGeometry width="50" height="50" relative="1" as="geometry">
            <mxPoint x="610" y="380" as="sourcePoint" />
            <mxPoint x="660" y="219.73" as="targetPoint" />
          </mxGeometry>
        </mxCell>
        <mxCell id="m9pvak0WOSGshnVw4_2q-114" value="" style="endArrow=none;html=1;rounded=0;entryX=0;entryY=0.5;entryDx=0;entryDy=0;exitX=1;exitY=0.5;exitDx=0;exitDy=0;" edge="1" parent="1" source="m9pvak0WOSGshnVw4_2q-74">
          <mxGeometry width="50" height="50" relative="1" as="geometry">
            <mxPoint x="620" y="379.73" as="sourcePoint" />
            <mxPoint x="660" y="379.73" as="targetPoint" />
          </mxGeometry>
        </mxCell>
        <mxCell id="m9pvak0WOSGshnVw4_2q-115" value="" style="endArrow=none;html=1;rounded=0;entryX=0;entryY=0.5;entryDx=0;entryDy=0;" edge="1" parent="1">
          <mxGeometry width="50" height="50" relative="1" as="geometry">
            <mxPoint x="610" y="380" as="sourcePoint" />
            <mxPoint x="660" y="459.73" as="targetPoint" />
          </mxGeometry>
        </mxCell>
        <mxCell id="m9pvak0WOSGshnVw4_2q-116" value="" style="endArrow=none;html=1;rounded=0;" edge="1" parent="1">
          <mxGeometry width="50" height="50" relative="1" as="geometry">
            <mxPoint x="610" y="460" as="sourcePoint" />
            <mxPoint x="660" y="139.73" as="targetPoint" />
          </mxGeometry>
        </mxCell>
        <mxCell id="m9pvak0WOSGshnVw4_2q-117" value="" style="endArrow=none;html=1;rounded=0;entryX=0;entryY=0.5;entryDx=0;entryDy=0;" edge="1" parent="1">
          <mxGeometry width="50" height="50" relative="1" as="geometry">
            <mxPoint x="610" y="460" as="sourcePoint" />
            <mxPoint x="660" y="379.73" as="targetPoint" />
          </mxGeometry>
        </mxCell>
        <mxCell id="m9pvak0WOSGshnVw4_2q-118" value="" style="endArrow=none;html=1;rounded=0;entryX=0;entryY=0.5;entryDx=0;entryDy=0;exitX=1;exitY=0.5;exitDx=0;exitDy=0;" edge="1" parent="1" source="m9pvak0WOSGshnVw4_2q-75">
          <mxGeometry width="50" height="50" relative="1" as="geometry">
            <mxPoint x="620" y="459.44" as="sourcePoint" />
            <mxPoint x="660" y="459.44" as="targetPoint" />
          </mxGeometry>
        </mxCell>
        <mxCell id="m9pvak0WOSGshnVw4_2q-119" value="" style="endArrow=none;html=1;rounded=0;entryX=0;entryY=0.5;entryDx=0;entryDy=0;" edge="1" parent="1">
          <mxGeometry width="50" height="50" relative="1" as="geometry">
            <mxPoint x="610" y="460" as="sourcePoint" />
            <mxPoint x="660" y="219.73" as="targetPoint" />
          </mxGeometry>
        </mxCell>
        <mxCell id="m9pvak0WOSGshnVw4_2q-120" value="" style="endArrow=none;html=1;rounded=0;exitX=1;exitY=0.5;exitDx=0;exitDy=0;" edge="1" parent="1">
          <mxGeometry width="50" height="50" relative="1" as="geometry">
            <mxPoint x="300" y="219.73" as="sourcePoint" />
            <mxPoint x="360" y="140" as="targetPoint" />
          </mxGeometry>
        </mxCell>
        <mxCell id="m9pvak0WOSGshnVw4_2q-121" value="" style="endArrow=none;html=1;rounded=0;" edge="1" parent="1">
          <mxGeometry width="50" height="50" relative="1" as="geometry">
            <mxPoint x="300" y="139.73" as="sourcePoint" />
            <mxPoint x="360" y="140" as="targetPoint" />
          </mxGeometry>
        </mxCell>
        <mxCell id="m9pvak0WOSGshnVw4_2q-122" value="" style="endArrow=none;html=1;rounded=0;" edge="1" parent="1">
          <mxGeometry width="50" height="50" relative="1" as="geometry">
            <mxPoint x="300" y="379.73" as="sourcePoint" />
            <mxPoint x="360" y="140" as="targetPoint" />
          </mxGeometry>
        </mxCell>
        <mxCell id="m9pvak0WOSGshnVw4_2q-123" value="" style="endArrow=none;html=1;rounded=0;entryX=-0.117;entryY=0.575;entryDx=0;entryDy=0;entryPerimeter=0;" edge="1" parent="1">
          <mxGeometry width="50" height="50" relative="1" as="geometry">
            <mxPoint x="300" y="219.73" as="sourcePoint" />
            <mxPoint x="340" y="219.73" as="targetPoint" />
          </mxGeometry>
        </mxCell>
        <mxCell id="m9pvak0WOSGshnVw4_2q-124" value="" style="endArrow=none;html=1;rounded=0;exitX=1;exitY=0.5;exitDx=0;exitDy=0;" edge="1" parent="1">
          <mxGeometry width="50" height="50" relative="1" as="geometry">
            <mxPoint x="300" y="219.73" as="sourcePoint" />
            <mxPoint x="360" y="380" as="targetPoint" />
          </mxGeometry>
        </mxCell>
        <mxCell id="m9pvak0WOSGshnVw4_2q-125" value="" style="endArrow=none;html=1;rounded=0;exitX=1;exitY=0.5;exitDx=0;exitDy=0;" edge="1" parent="1">
          <mxGeometry width="50" height="50" relative="1" as="geometry">
            <mxPoint x="300" y="219.73" as="sourcePoint" />
            <mxPoint x="360" y="460" as="targetPoint" />
          </mxGeometry>
        </mxCell>
        <mxCell id="m9pvak0WOSGshnVw4_2q-126" value="" style="endArrow=none;html=1;rounded=0;exitX=1;exitY=0.5;exitDx=0;exitDy=0;" edge="1" parent="1">
          <mxGeometry width="50" height="50" relative="1" as="geometry">
            <mxPoint x="300" y="139.73" as="sourcePoint" />
            <mxPoint x="360" y="220" as="targetPoint" />
          </mxGeometry>
        </mxCell>
        <mxCell id="m9pvak0WOSGshnVw4_2q-127" value="" style="endArrow=none;html=1;rounded=0;" edge="1" parent="1">
          <mxGeometry width="50" height="50" relative="1" as="geometry">
            <mxPoint x="300" y="139.73" as="sourcePoint" />
            <mxPoint x="360" y="380" as="targetPoint" />
          </mxGeometry>
        </mxCell>
        <mxCell id="m9pvak0WOSGshnVw4_2q-128" value="" style="endArrow=none;html=1;rounded=0;" edge="1" parent="1">
          <mxGeometry width="50" height="50" relative="1" as="geometry">
            <mxPoint x="300" y="139.73" as="sourcePoint" />
            <mxPoint x="360" y="460" as="targetPoint" />
          </mxGeometry>
        </mxCell>
        <mxCell id="m9pvak0WOSGshnVw4_2q-129" value="" style="endArrow=none;html=1;rounded=0;exitX=1;exitY=0.5;exitDx=0;exitDy=0;" edge="1" parent="1">
          <mxGeometry width="50" height="50" relative="1" as="geometry">
            <mxPoint x="300" y="379.73" as="sourcePoint" />
            <mxPoint x="360" y="220" as="targetPoint" />
          </mxGeometry>
        </mxCell>
        <mxCell id="m9pvak0WOSGshnVw4_2q-130" value="" style="endArrow=none;html=1;rounded=0;entryX=0;entryY=0.5;entryDx=0;entryDy=0;" edge="1" parent="1">
          <mxGeometry width="50" height="50" relative="1" as="geometry">
            <mxPoint x="300" y="379.73" as="sourcePoint" />
            <mxPoint x="340" y="379.73" as="targetPoint" />
          </mxGeometry>
        </mxCell>
        <mxCell id="m9pvak0WOSGshnVw4_2q-131" value="" style="endArrow=none;html=1;rounded=0;" edge="1" parent="1">
          <mxGeometry width="50" height="50" relative="1" as="geometry">
            <mxPoint x="300" y="379.73" as="sourcePoint" />
            <mxPoint x="360" y="460" as="targetPoint" />
          </mxGeometry>
        </mxCell>
        <mxCell id="m9pvak0WOSGshnVw4_2q-132" value="" style="endArrow=none;html=1;rounded=0;exitX=1;exitY=0.5;exitDx=0;exitDy=0;" edge="1" parent="1">
          <mxGeometry width="50" height="50" relative="1" as="geometry">
            <mxPoint x="300" y="459.73" as="sourcePoint" />
            <mxPoint x="360" y="140" as="targetPoint" />
          </mxGeometry>
        </mxCell>
        <mxCell id="m9pvak0WOSGshnVw4_2q-133" value="" style="endArrow=none;html=1;rounded=0;exitX=1;exitY=0.5;exitDx=0;exitDy=0;" edge="1" parent="1">
          <mxGeometry width="50" height="50" relative="1" as="geometry">
            <mxPoint x="300" y="459.73" as="sourcePoint" />
            <mxPoint x="360" y="380" as="targetPoint" />
          </mxGeometry>
        </mxCell>
        <mxCell id="m9pvak0WOSGshnVw4_2q-134" value="" style="endArrow=none;html=1;rounded=0;entryX=0;entryY=0.5;entryDx=0;entryDy=0;" edge="1" parent="1">
          <mxGeometry width="50" height="50" relative="1" as="geometry">
            <mxPoint x="300" y="459.44" as="sourcePoint" />
            <mxPoint x="340" y="459.44" as="targetPoint" />
          </mxGeometry>
        </mxCell>
        <mxCell id="m9pvak0WOSGshnVw4_2q-135" value="" style="endArrow=none;html=1;rounded=0;" edge="1" parent="1">
          <mxGeometry width="50" height="50" relative="1" as="geometry">
            <mxPoint x="300" y="459.73" as="sourcePoint" />
            <mxPoint x="360" y="220" as="targetPoint" />
          </mxGeometry>
        </mxCell>
        <mxCell id="m9pvak0WOSGshnVw4_2q-136" value="&lt;font style=&quot;font-size: 48px;&quot;&gt;...&lt;/font&gt;" style="text;html=1;strokeColor=none;fillColor=none;align=center;verticalAlign=middle;whiteSpace=wrap;rounded=0;" vertex="1" parent="1">
          <mxGeometry x="420" y="200" width="60" height="30" as="geometry" />
        </mxCell>
        <mxCell id="m9pvak0WOSGshnVw4_2q-137" value="&lt;font style=&quot;font-size: 48px;&quot;&gt;...&lt;/font&gt;" style="text;html=1;strokeColor=none;fillColor=none;align=center;verticalAlign=middle;whiteSpace=wrap;rounded=0;" vertex="1" parent="1">
          <mxGeometry x="420" y="120" width="60" height="30" as="geometry" />
        </mxCell>
        <mxCell id="m9pvak0WOSGshnVw4_2q-138" value="&lt;font style=&quot;font-size: 48px;&quot;&gt;...&lt;/font&gt;" style="text;html=1;strokeColor=none;fillColor=none;align=center;verticalAlign=middle;whiteSpace=wrap;rounded=0;" vertex="1" parent="1">
          <mxGeometry x="420" y="350" width="60" height="30" as="geometry" />
        </mxCell>
        <mxCell id="m9pvak0WOSGshnVw4_2q-139" value="&lt;font style=&quot;font-size: 48px;&quot;&gt;...&lt;/font&gt;" style="text;html=1;strokeColor=none;fillColor=none;align=center;verticalAlign=middle;whiteSpace=wrap;rounded=0;" vertex="1" parent="1">
          <mxGeometry x="420" y="430" width="60" height="30" as="geometry" />
        </mxCell>
        <mxCell id="m9pvak0WOSGshnVw4_2q-141" value="" style="swimlane;startSize=0;" vertex="1" parent="1">
          <mxGeometry x="30" y="70" width="660" height="460" as="geometry" />
        </mxCell>
        <mxCell id="m9pvak0WOSGshnVw4_2q-142" value="&lt;font style=&quot;font-size: 24px;&quot;&gt;stn_convnet&lt;/font&gt;" style="text;html=1;strokeColor=none;fillColor=none;align=center;verticalAlign=middle;whiteSpace=wrap;rounded=0;" vertex="1" parent="m9pvak0WOSGshnVw4_2q-141">
          <mxGeometry x="50" y="20" width="60" height="30" as="geometry" />
        </mxCell>
        <mxCell id="m9pvak0WOSGshnVw4_2q-79" value="" style="whiteSpace=wrap;html=1;aspect=fixed;" vertex="1" parent="m9pvak0WOSGshnVw4_2q-141">
          <mxGeometry x="630" y="65" width="10" height="10" as="geometry" />
        </mxCell>
        <mxCell id="m9pvak0WOSGshnVw4_2q-80" value="" style="whiteSpace=wrap;html=1;aspect=fixed;" vertex="1" parent="m9pvak0WOSGshnVw4_2q-141">
          <mxGeometry x="630" y="145" width="10" height="10" as="geometry" />
        </mxCell>
        <mxCell id="m9pvak0WOSGshnVw4_2q-81" value="" style="whiteSpace=wrap;html=1;aspect=fixed;" vertex="1" parent="m9pvak0WOSGshnVw4_2q-141">
          <mxGeometry x="630" y="305" width="10" height="10" as="geometry" />
        </mxCell>
        <mxCell id="m9pvak0WOSGshnVw4_2q-82" value="" style="whiteSpace=wrap;html=1;aspect=fixed;" vertex="1" parent="m9pvak0WOSGshnVw4_2q-141">
          <mxGeometry x="630" y="385" width="10" height="10" as="geometry" />
        </mxCell>
        <mxCell id="m9pvak0WOSGshnVw4_2q-85" value="256" style="text;html=1;strokeColor=none;fillColor=none;align=center;verticalAlign=middle;whiteSpace=wrap;rounded=0;" vertex="1" parent="m9pvak0WOSGshnVw4_2q-141">
          <mxGeometry x="600" y="420" width="60" height="30" as="geometry" />
        </mxCell>
        <mxCell id="m9pvak0WOSGshnVw4_2q-84" value="1X2" style="text;html=1;strokeColor=none;fillColor=none;align=center;verticalAlign=middle;whiteSpace=wrap;rounded=0;" vertex="1" parent="m9pvak0WOSGshnVw4_2q-141">
          <mxGeometry x="605" y="20" width="60" height="30" as="geometry" />
        </mxCell>
        <mxCell id="m9pvak0WOSGshnVw4_2q-72" value="" style="whiteSpace=wrap;html=1;aspect=fixed;" vertex="1" parent="m9pvak0WOSGshnVw4_2q-141">
          <mxGeometry x="560" y="60" width="20" height="20" as="geometry" />
        </mxCell>
        <mxCell id="m9pvak0WOSGshnVw4_2q-65" value="" style="whiteSpace=wrap;html=1;aspect=fixed;" vertex="1" parent="m9pvak0WOSGshnVw4_2q-141">
          <mxGeometry x="480" y="55" width="30" height="30" as="geometry" />
        </mxCell>
        <mxCell id="m9pvak0WOSGshnVw4_2q-66" value="" style="whiteSpace=wrap;html=1;aspect=fixed;" vertex="1" parent="m9pvak0WOSGshnVw4_2q-141">
          <mxGeometry x="480" y="135" width="30" height="30" as="geometry" />
        </mxCell>
        <mxCell id="m9pvak0WOSGshnVw4_2q-67" value="" style="whiteSpace=wrap;html=1;aspect=fixed;" vertex="1" parent="m9pvak0WOSGshnVw4_2q-141">
          <mxGeometry x="480" y="295" width="30" height="30" as="geometry" />
        </mxCell>
        <mxCell id="m9pvak0WOSGshnVw4_2q-68" value="" style="whiteSpace=wrap;html=1;aspect=fixed;" vertex="1" parent="m9pvak0WOSGshnVw4_2q-141">
          <mxGeometry x="480" y="375" width="30" height="30" as="geometry" />
        </mxCell>
        <mxCell id="m9pvak0WOSGshnVw4_2q-73" value="" style="whiteSpace=wrap;html=1;aspect=fixed;" vertex="1" parent="m9pvak0WOSGshnVw4_2q-141">
          <mxGeometry x="560" y="140" width="20" height="20" as="geometry" />
        </mxCell>
        <mxCell id="m9pvak0WOSGshnVw4_2q-74" value="" style="whiteSpace=wrap;html=1;aspect=fixed;" vertex="1" parent="m9pvak0WOSGshnVw4_2q-141">
          <mxGeometry x="560" y="300" width="20" height="20" as="geometry" />
        </mxCell>
        <mxCell id="m9pvak0WOSGshnVw4_2q-101" value="" style="endArrow=none;html=1;rounded=0;entryX=0;entryY=0.5;entryDx=0;entryDy=0;exitX=1;exitY=0.5;exitDx=0;exitDy=0;" edge="1" parent="m9pvak0WOSGshnVw4_2q-141" source="m9pvak0WOSGshnVw4_2q-68" target="m9pvak0WOSGshnVw4_2q-74">
          <mxGeometry width="50" height="50" relative="1" as="geometry">
            <mxPoint x="520" y="320" as="sourcePoint" />
            <mxPoint x="560" y="320" as="targetPoint" />
          </mxGeometry>
        </mxCell>
        <mxCell id="m9pvak0WOSGshnVw4_2q-75" value="" style="whiteSpace=wrap;html=1;aspect=fixed;" vertex="1" parent="m9pvak0WOSGshnVw4_2q-141">
          <mxGeometry x="560" y="380" width="20" height="20" as="geometry" />
        </mxCell>
        <mxCell id="m9pvak0WOSGshnVw4_2q-94" value="" style="endArrow=none;html=1;rounded=0;exitX=1;exitY=0.5;exitDx=0;exitDy=0;" edge="1" parent="m9pvak0WOSGshnVw4_2q-141" source="m9pvak0WOSGshnVw4_2q-65">
          <mxGeometry width="50" height="50" relative="1" as="geometry">
            <mxPoint x="490" y="230" as="sourcePoint" />
            <mxPoint x="560" y="150" as="targetPoint" />
          </mxGeometry>
        </mxCell>
        <mxCell id="m9pvak0WOSGshnVw4_2q-97" value="" style="endArrow=none;html=1;rounded=0;entryX=0;entryY=0.5;entryDx=0;entryDy=0;exitX=1;exitY=0.5;exitDx=0;exitDy=0;" edge="1" parent="m9pvak0WOSGshnVw4_2q-141" source="m9pvak0WOSGshnVw4_2q-67" target="m9pvak0WOSGshnVw4_2q-73">
          <mxGeometry width="50" height="50" relative="1" as="geometry">
            <mxPoint x="490" y="310" as="sourcePoint" />
            <mxPoint x="550" y="150" as="targetPoint" />
          </mxGeometry>
        </mxCell>
        <mxCell id="m9pvak0WOSGshnVw4_2q-77" value="2X4" style="text;html=1;strokeColor=none;fillColor=none;align=center;verticalAlign=middle;whiteSpace=wrap;rounded=0;" vertex="1" parent="m9pvak0WOSGshnVw4_2q-141">
          <mxGeometry x="540" y="20" width="60" height="30" as="geometry" />
        </mxCell>
        <mxCell id="m9pvak0WOSGshnVw4_2q-83" value="&lt;font style=&quot;font-size: 24px;&quot;&gt;...&lt;/font&gt;" style="text;html=1;strokeColor=none;fillColor=none;align=center;verticalAlign=middle;whiteSpace=wrap;rounded=0;" vertex="1" parent="m9pvak0WOSGshnVw4_2q-141">
          <mxGeometry x="605" y="215" width="60" height="30" as="geometry" />
        </mxCell>
        <mxCell id="m9pvak0WOSGshnVw4_2q-78" value="256" style="text;html=1;strokeColor=none;fillColor=none;align=center;verticalAlign=middle;whiteSpace=wrap;rounded=0;" vertex="1" parent="m9pvak0WOSGshnVw4_2q-141">
          <mxGeometry x="540" y="420" width="60" height="30" as="geometry" />
        </mxCell>
        <mxCell id="m9pvak0WOSGshnVw4_2q-169" value="" style="endArrow=none;html=1;rounded=0;entryX=0;entryY=0.5;entryDx=0;entryDy=0;exitX=1;exitY=0.5;exitDx=0;exitDy=0;" edge="1" parent="m9pvak0WOSGshnVw4_2q-141">
          <mxGeometry width="50" height="50" relative="1" as="geometry">
            <mxPoint x="640" y="150.07" as="sourcePoint" />
            <mxPoint x="690" y="69.79999999999998" as="targetPoint" />
          </mxGeometry>
        </mxCell>
        <mxCell id="m9pvak0WOSGshnVw4_2q-170" value="" style="endArrow=none;html=1;rounded=0;entryX=0;entryY=0.5;entryDx=0;entryDy=0;exitX=1;exitY=0.5;exitDx=0;exitDy=0;" edge="1" parent="m9pvak0WOSGshnVw4_2q-141">
          <mxGeometry width="50" height="50" relative="1" as="geometry">
            <mxPoint x="640" y="70.07" as="sourcePoint" />
            <mxPoint x="690" y="69.79999999999998" as="targetPoint" />
          </mxGeometry>
        </mxCell>
        <mxCell id="m9pvak0WOSGshnVw4_2q-171" value="" style="endArrow=none;html=1;rounded=0;entryX=0;entryY=0.5;entryDx=0;entryDy=0;" edge="1" parent="m9pvak0WOSGshnVw4_2q-141">
          <mxGeometry width="50" height="50" relative="1" as="geometry">
            <mxPoint x="640" y="310.07" as="sourcePoint" />
            <mxPoint x="690" y="69.79999999999998" as="targetPoint" />
          </mxGeometry>
        </mxCell>
        <mxCell id="m9pvak0WOSGshnVw4_2q-172" value="" style="endArrow=none;html=1;rounded=0;entryX=-0.117;entryY=0.575;entryDx=0;entryDy=0;entryPerimeter=0;exitX=1;exitY=0.5;exitDx=0;exitDy=0;" edge="1" parent="m9pvak0WOSGshnVw4_2q-141">
          <mxGeometry width="50" height="50" relative="1" as="geometry">
            <mxPoint x="640" y="150.07" as="sourcePoint" />
            <mxPoint x="690" y="149.79999999999998" as="targetPoint" />
          </mxGeometry>
        </mxCell>
        <mxCell id="m9pvak0WOSGshnVw4_2q-173" value="" style="endArrow=none;html=1;rounded=0;entryX=0;entryY=0.5;entryDx=0;entryDy=0;" edge="1" parent="m9pvak0WOSGshnVw4_2q-141">
          <mxGeometry width="50" height="50" relative="1" as="geometry">
            <mxPoint x="640" y="150.07" as="sourcePoint" />
            <mxPoint x="690" y="309.8" as="targetPoint" />
          </mxGeometry>
        </mxCell>
        <mxCell id="m9pvak0WOSGshnVw4_2q-174" value="" style="endArrow=none;html=1;rounded=0;entryX=0;entryY=0.5;entryDx=0;entryDy=0;exitX=1;exitY=0.5;exitDx=0;exitDy=0;" edge="1" parent="m9pvak0WOSGshnVw4_2q-141">
          <mxGeometry width="50" height="50" relative="1" as="geometry">
            <mxPoint x="640" y="150.07" as="sourcePoint" />
            <mxPoint x="690" y="389.8" as="targetPoint" />
          </mxGeometry>
        </mxCell>
        <mxCell id="m9pvak0WOSGshnVw4_2q-175" value="" style="endArrow=none;html=1;rounded=0;entryX=0;entryY=0.5;entryDx=0;entryDy=0;" edge="1" parent="m9pvak0WOSGshnVw4_2q-141">
          <mxGeometry width="50" height="50" relative="1" as="geometry">
            <mxPoint x="640" y="70.07" as="sourcePoint" />
            <mxPoint x="690" y="149.79999999999998" as="targetPoint" />
          </mxGeometry>
        </mxCell>
        <mxCell id="m9pvak0WOSGshnVw4_2q-176" value="" style="endArrow=none;html=1;rounded=0;entryX=0;entryY=0.5;entryDx=0;entryDy=0;exitX=1;exitY=0.5;exitDx=0;exitDy=0;" edge="1" parent="m9pvak0WOSGshnVw4_2q-141">
          <mxGeometry width="50" height="50" relative="1" as="geometry">
            <mxPoint x="640" y="70.07" as="sourcePoint" />
            <mxPoint x="690" y="309.8" as="targetPoint" />
          </mxGeometry>
        </mxCell>
        <mxCell id="m9pvak0WOSGshnVw4_2q-177" value="" style="endArrow=none;html=1;rounded=0;entryX=0;entryY=0.5;entryDx=0;entryDy=0;" edge="1" parent="m9pvak0WOSGshnVw4_2q-141">
          <mxGeometry width="50" height="50" relative="1" as="geometry">
            <mxPoint x="640" y="70.07" as="sourcePoint" />
            <mxPoint x="690" y="389.8" as="targetPoint" />
          </mxGeometry>
        </mxCell>
        <mxCell id="m9pvak0WOSGshnVw4_2q-178" value="" style="endArrow=none;html=1;rounded=0;entryX=0;entryY=0.5;entryDx=0;entryDy=0;" edge="1" parent="m9pvak0WOSGshnVw4_2q-141">
          <mxGeometry width="50" height="50" relative="1" as="geometry">
            <mxPoint x="640" y="310.07" as="sourcePoint" />
            <mxPoint x="690" y="149.79999999999998" as="targetPoint" />
          </mxGeometry>
        </mxCell>
        <mxCell id="m9pvak0WOSGshnVw4_2q-179" value="" style="endArrow=none;html=1;rounded=0;entryX=0;entryY=0.5;entryDx=0;entryDy=0;exitX=1;exitY=0.5;exitDx=0;exitDy=0;" edge="1" parent="m9pvak0WOSGshnVw4_2q-141">
          <mxGeometry width="50" height="50" relative="1" as="geometry">
            <mxPoint x="640" y="310.07" as="sourcePoint" />
            <mxPoint x="690" y="309.8" as="targetPoint" />
          </mxGeometry>
        </mxCell>
        <mxCell id="m9pvak0WOSGshnVw4_2q-180" value="" style="endArrow=none;html=1;rounded=0;entryX=0;entryY=0.5;entryDx=0;entryDy=0;" edge="1" parent="m9pvak0WOSGshnVw4_2q-141">
          <mxGeometry width="50" height="50" relative="1" as="geometry">
            <mxPoint x="640" y="310.07" as="sourcePoint" />
            <mxPoint x="690" y="389.8" as="targetPoint" />
          </mxGeometry>
        </mxCell>
        <mxCell id="m9pvak0WOSGshnVw4_2q-181" value="" style="endArrow=none;html=1;rounded=0;" edge="1" parent="m9pvak0WOSGshnVw4_2q-141">
          <mxGeometry width="50" height="50" relative="1" as="geometry">
            <mxPoint x="640" y="390.07" as="sourcePoint" />
            <mxPoint x="690" y="69.79999999999998" as="targetPoint" />
          </mxGeometry>
        </mxCell>
        <mxCell id="m9pvak0WOSGshnVw4_2q-182" value="" style="endArrow=none;html=1;rounded=0;entryX=0;entryY=0.5;entryDx=0;entryDy=0;" edge="1" parent="m9pvak0WOSGshnVw4_2q-141">
          <mxGeometry width="50" height="50" relative="1" as="geometry">
            <mxPoint x="640" y="390.07" as="sourcePoint" />
            <mxPoint x="690" y="309.8" as="targetPoint" />
          </mxGeometry>
        </mxCell>
        <mxCell id="m9pvak0WOSGshnVw4_2q-183" value="" style="endArrow=none;html=1;rounded=0;entryX=0;entryY=0.5;entryDx=0;entryDy=0;exitX=1;exitY=0.5;exitDx=0;exitDy=0;" edge="1" parent="m9pvak0WOSGshnVw4_2q-141">
          <mxGeometry width="50" height="50" relative="1" as="geometry">
            <mxPoint x="640" y="390.07" as="sourcePoint" />
            <mxPoint x="690" y="389.51" as="targetPoint" />
          </mxGeometry>
        </mxCell>
        <mxCell id="m9pvak0WOSGshnVw4_2q-184" value="" style="endArrow=none;html=1;rounded=0;entryX=0;entryY=0.5;entryDx=0;entryDy=0;" edge="1" parent="m9pvak0WOSGshnVw4_2q-141">
          <mxGeometry width="50" height="50" relative="1" as="geometry">
            <mxPoint x="640" y="390.07" as="sourcePoint" />
            <mxPoint x="690" y="149.79999999999998" as="targetPoint" />
          </mxGeometry>
        </mxCell>
        <mxCell id="m9pvak0WOSGshnVw4_2q-144" value="" style="ellipse;whiteSpace=wrap;html=1;aspect=fixed;" vertex="1" parent="m9pvak0WOSGshnVw4_2q-141">
          <mxGeometry x="690" y="62.5" width="15" height="15" as="geometry" />
        </mxCell>
        <mxCell id="m9pvak0WOSGshnVw4_2q-156" value="" style="ellipse;whiteSpace=wrap;html=1;aspect=fixed;" vertex="1" parent="m9pvak0WOSGshnVw4_2q-141">
          <mxGeometry x="690" y="142.5" width="15" height="15" as="geometry" />
        </mxCell>
        <mxCell id="m9pvak0WOSGshnVw4_2q-157" value="" style="ellipse;whiteSpace=wrap;html=1;aspect=fixed;" vertex="1" parent="m9pvak0WOSGshnVw4_2q-141">
          <mxGeometry x="690" y="302.5" width="15" height="15" as="geometry" />
        </mxCell>
        <mxCell id="m9pvak0WOSGshnVw4_2q-158" value="" style="ellipse;whiteSpace=wrap;html=1;aspect=fixed;" vertex="1" parent="m9pvak0WOSGshnVw4_2q-141">
          <mxGeometry x="690" y="382.5" width="15" height="15" as="geometry" />
        </mxCell>
        <mxCell id="m9pvak0WOSGshnVw4_2q-215" value="32X64" style="text;html=1;strokeColor=none;fillColor=none;align=center;verticalAlign=middle;whiteSpace=wrap;rounded=0;" vertex="1" parent="m9pvak0WOSGshnVw4_2q-141">
          <mxGeometry x="10" y="200" width="60" height="30" as="geometry" />
        </mxCell>
        <mxCell id="m9pvak0WOSGshnVw4_2q-166" value="&lt;font style=&quot;font-size: 24px;&quot;&gt;...&lt;/font&gt;" style="text;html=1;strokeColor=none;fillColor=none;align=center;verticalAlign=middle;whiteSpace=wrap;rounded=0;" vertex="1" parent="1">
          <mxGeometry x="767" y="285" width="60" height="30" as="geometry" />
        </mxCell>
        <mxCell id="m9pvak0WOSGshnVw4_2q-186" value="" style="endArrow=none;html=1;rounded=0;entryX=0;entryY=0.5;entryDx=0;entryDy=0;exitX=1;exitY=0.5;exitDx=0;exitDy=0;" edge="1" parent="1">
          <mxGeometry width="50" height="50" relative="1" as="geometry">
            <mxPoint x="740" y="220.07" as="sourcePoint" />
            <mxPoint x="790" y="139.79999999999998" as="targetPoint" />
          </mxGeometry>
        </mxCell>
        <mxCell id="m9pvak0WOSGshnVw4_2q-187" value="" style="endArrow=none;html=1;rounded=0;entryX=0;entryY=0.5;entryDx=0;entryDy=0;exitX=1;exitY=0.5;exitDx=0;exitDy=0;" edge="1" parent="1">
          <mxGeometry width="50" height="50" relative="1" as="geometry">
            <mxPoint x="740" y="140.07" as="sourcePoint" />
            <mxPoint x="790" y="139.79999999999998" as="targetPoint" />
          </mxGeometry>
        </mxCell>
        <mxCell id="m9pvak0WOSGshnVw4_2q-188" value="" style="endArrow=none;html=1;rounded=0;entryX=0;entryY=0.5;entryDx=0;entryDy=0;" edge="1" parent="1">
          <mxGeometry width="50" height="50" relative="1" as="geometry">
            <mxPoint x="740" y="380.07" as="sourcePoint" />
            <mxPoint x="790" y="139.79999999999998" as="targetPoint" />
          </mxGeometry>
        </mxCell>
        <mxCell id="m9pvak0WOSGshnVw4_2q-189" value="" style="endArrow=none;html=1;rounded=0;entryX=-0.117;entryY=0.575;entryDx=0;entryDy=0;entryPerimeter=0;exitX=1;exitY=0.5;exitDx=0;exitDy=0;" edge="1" parent="1">
          <mxGeometry width="50" height="50" relative="1" as="geometry">
            <mxPoint x="740" y="220.07" as="sourcePoint" />
            <mxPoint x="790" y="219.79999999999998" as="targetPoint" />
          </mxGeometry>
        </mxCell>
        <mxCell id="m9pvak0WOSGshnVw4_2q-190" value="" style="endArrow=none;html=1;rounded=0;entryX=0;entryY=0.5;entryDx=0;entryDy=0;" edge="1" parent="1">
          <mxGeometry width="50" height="50" relative="1" as="geometry">
            <mxPoint x="740" y="220.07" as="sourcePoint" />
            <mxPoint x="790" y="379.8" as="targetPoint" />
          </mxGeometry>
        </mxCell>
        <mxCell id="m9pvak0WOSGshnVw4_2q-191" value="" style="endArrow=none;html=1;rounded=0;entryX=0;entryY=0.5;entryDx=0;entryDy=0;exitX=1;exitY=0.5;exitDx=0;exitDy=0;" edge="1" parent="1">
          <mxGeometry width="50" height="50" relative="1" as="geometry">
            <mxPoint x="740" y="220.07" as="sourcePoint" />
            <mxPoint x="790" y="459.8" as="targetPoint" />
          </mxGeometry>
        </mxCell>
        <mxCell id="m9pvak0WOSGshnVw4_2q-192" value="" style="endArrow=none;html=1;rounded=0;entryX=0;entryY=0.5;entryDx=0;entryDy=0;" edge="1" parent="1">
          <mxGeometry width="50" height="50" relative="1" as="geometry">
            <mxPoint x="740" y="140.07" as="sourcePoint" />
            <mxPoint x="790" y="219.79999999999998" as="targetPoint" />
          </mxGeometry>
        </mxCell>
        <mxCell id="m9pvak0WOSGshnVw4_2q-193" value="" style="endArrow=none;html=1;rounded=0;entryX=0;entryY=0.5;entryDx=0;entryDy=0;exitX=1;exitY=0.5;exitDx=0;exitDy=0;" edge="1" parent="1">
          <mxGeometry width="50" height="50" relative="1" as="geometry">
            <mxPoint x="740" y="140.07" as="sourcePoint" />
            <mxPoint x="790" y="379.8" as="targetPoint" />
          </mxGeometry>
        </mxCell>
        <mxCell id="m9pvak0WOSGshnVw4_2q-194" value="" style="endArrow=none;html=1;rounded=0;entryX=0;entryY=0.5;entryDx=0;entryDy=0;" edge="1" parent="1">
          <mxGeometry width="50" height="50" relative="1" as="geometry">
            <mxPoint x="740" y="140.07" as="sourcePoint" />
            <mxPoint x="790" y="459.8" as="targetPoint" />
          </mxGeometry>
        </mxCell>
        <mxCell id="m9pvak0WOSGshnVw4_2q-195" value="" style="endArrow=none;html=1;rounded=0;entryX=0;entryY=0.5;entryDx=0;entryDy=0;" edge="1" parent="1">
          <mxGeometry width="50" height="50" relative="1" as="geometry">
            <mxPoint x="740" y="380.07" as="sourcePoint" />
            <mxPoint x="790" y="219.79999999999998" as="targetPoint" />
          </mxGeometry>
        </mxCell>
        <mxCell id="m9pvak0WOSGshnVw4_2q-196" value="" style="endArrow=none;html=1;rounded=0;entryX=0;entryY=0.5;entryDx=0;entryDy=0;exitX=1;exitY=0.5;exitDx=0;exitDy=0;" edge="1" parent="1">
          <mxGeometry width="50" height="50" relative="1" as="geometry">
            <mxPoint x="740" y="380.07" as="sourcePoint" />
            <mxPoint x="790" y="379.8" as="targetPoint" />
          </mxGeometry>
        </mxCell>
        <mxCell id="m9pvak0WOSGshnVw4_2q-197" value="" style="endArrow=none;html=1;rounded=0;entryX=0;entryY=0.5;entryDx=0;entryDy=0;" edge="1" parent="1">
          <mxGeometry width="50" height="50" relative="1" as="geometry">
            <mxPoint x="740" y="380.07" as="sourcePoint" />
            <mxPoint x="790" y="459.8" as="targetPoint" />
          </mxGeometry>
        </mxCell>
        <mxCell id="m9pvak0WOSGshnVw4_2q-198" value="" style="endArrow=none;html=1;rounded=0;" edge="1" parent="1">
          <mxGeometry width="50" height="50" relative="1" as="geometry">
            <mxPoint x="740" y="460.07" as="sourcePoint" />
            <mxPoint x="790" y="139.79999999999998" as="targetPoint" />
          </mxGeometry>
        </mxCell>
        <mxCell id="m9pvak0WOSGshnVw4_2q-199" value="" style="endArrow=none;html=1;rounded=0;entryX=0;entryY=0.5;entryDx=0;entryDy=0;" edge="1" parent="1">
          <mxGeometry width="50" height="50" relative="1" as="geometry">
            <mxPoint x="740" y="460.07" as="sourcePoint" />
            <mxPoint x="790" y="379.8" as="targetPoint" />
          </mxGeometry>
        </mxCell>
        <mxCell id="m9pvak0WOSGshnVw4_2q-200" value="" style="endArrow=none;html=1;rounded=0;entryX=0;entryY=0.5;entryDx=0;entryDy=0;exitX=1;exitY=0.5;exitDx=0;exitDy=0;" edge="1" parent="1">
          <mxGeometry width="50" height="50" relative="1" as="geometry">
            <mxPoint x="740" y="460.07" as="sourcePoint" />
            <mxPoint x="790" y="459.51" as="targetPoint" />
          </mxGeometry>
        </mxCell>
        <mxCell id="m9pvak0WOSGshnVw4_2q-201" value="" style="endArrow=none;html=1;rounded=0;entryX=0;entryY=0.5;entryDx=0;entryDy=0;" edge="1" parent="1">
          <mxGeometry width="50" height="50" relative="1" as="geometry">
            <mxPoint x="740" y="460.07" as="sourcePoint" />
            <mxPoint x="790" y="219.79999999999998" as="targetPoint" />
          </mxGeometry>
        </mxCell>
        <mxCell id="m9pvak0WOSGshnVw4_2q-202" value="" style="ellipse;whiteSpace=wrap;html=1;aspect=fixed;" vertex="1" parent="1">
          <mxGeometry x="790" y="132.5" width="15" height="15" as="geometry" />
        </mxCell>
        <mxCell id="m9pvak0WOSGshnVw4_2q-203" value="" style="ellipse;whiteSpace=wrap;html=1;aspect=fixed;" vertex="1" parent="1">
          <mxGeometry x="790" y="212.5" width="15" height="15" as="geometry" />
        </mxCell>
        <mxCell id="m9pvak0WOSGshnVw4_2q-204" value="" style="ellipse;whiteSpace=wrap;html=1;aspect=fixed;" vertex="1" parent="1">
          <mxGeometry x="790" y="372.5" width="15" height="15" as="geometry" />
        </mxCell>
        <mxCell id="m9pvak0WOSGshnVw4_2q-205" value="" style="ellipse;whiteSpace=wrap;html=1;aspect=fixed;" vertex="1" parent="1">
          <mxGeometry x="790" y="452.5" width="15" height="15" as="geometry" />
        </mxCell>
        <mxCell id="m9pvak0WOSGshnVw4_2q-209" value="&lt;font style=&quot;font-size: 24px;&quot;&gt;...&lt;/font&gt;" style="text;html=1;strokeColor=none;fillColor=none;align=center;verticalAlign=middle;whiteSpace=wrap;rounded=0;" vertex="1" parent="1">
          <mxGeometry x="700" y="280" width="60" height="30" as="geometry" />
        </mxCell>
        <mxCell id="m9pvak0WOSGshnVw4_2q-210" value="512" style="text;html=1;strokeColor=none;fillColor=none;align=center;verticalAlign=middle;whiteSpace=wrap;rounded=0;" vertex="1" parent="1">
          <mxGeometry x="700" y="490" width="60" height="30" as="geometry" />
        </mxCell>
        <mxCell id="m9pvak0WOSGshnVw4_2q-211" value="num_control&lt;br&gt;_points" style="text;html=1;strokeColor=none;fillColor=none;align=center;verticalAlign=middle;whiteSpace=wrap;rounded=0;" vertex="1" parent="1">
          <mxGeometry x="767" y="490" width="60" height="30" as="geometry" />
        </mxCell>
        <mxCell id="m9pvak0WOSGshnVw4_2q-213" value="" style="swimlane;startSize=0;" vertex="1" parent="1">
          <mxGeometry x="700" y="70" width="140" height="460" as="geometry">
            <mxRectangle x="697" y="570" width="50" height="40" as="alternateBounds" />
          </mxGeometry>
        </mxCell>
        <mxCell id="m9pvak0WOSGshnVw4_2q-214" value="&lt;span style=&quot;font-size: 24px;&quot;&gt;stn_fc&lt;br&gt;&lt;/span&gt;" style="text;html=1;strokeColor=none;fillColor=none;align=center;verticalAlign=middle;whiteSpace=wrap;rounded=0;" vertex="1" parent="m9pvak0WOSGshnVw4_2q-213">
          <mxGeometry x="30" y="20" width="60" height="30" as="geometry" />
        </mxCell>
      </root>
    </mxGraphModel>
  </diagram>
</mxfile>
